<svg id="_2928473" data-name="2928473" xmlns="http://www.w3.org/2000/svg" width="72.499" height="72.499" viewBox="0 0 72.499 72.499">
  <path id="Path_69" data-name="Path 69" d="M65.663,73.066l-4.29-3.392a1.573,1.573,0,1,0-1.951,2.469l.163.129a9.848,9.848,0,0,1-4-16.356,1.573,1.573,0,1,0-2.225-2.224A12.984,12.984,0,0,0,60.4,75.68l-.982.776a1.573,1.573,0,1,0,1.951,2.469l4.292-3.392a1.573,1.573,0,0,0,0-2.469Z" transform="translate(-26.293 -26.664)" fill="#fff"/>
  <path id="Path_70" data-name="Path 70" d="M61.62,40.417a21.2,21.2,0,1,0,21.2,21.2A21.2,21.2,0,0,0,61.62,40.417Zm0,39.259A18.056,18.056,0,1,1,79.676,61.62,18.056,18.056,0,0,1,61.62,79.676Z" transform="translate(-25.371 -25.371)" fill="#fff"/>
  <path id="Path_71" data-name="Path 71" d="M94.607,53.616H88.371A28.726,28.726,0,0,0,84.5,44.289l4.412-4.407a1.573,1.573,0,0,0,0-2.225L82.209,30.95a1.573,1.573,0,0,0-2.224,0l-4.41,4.406a28.714,28.714,0,0,0-9.327-3.866V25.255a1.572,1.572,0,0,0-1.573-1.573H55.189a1.572,1.572,0,0,0-1.573,1.573v6.236a28.714,28.714,0,0,0-9.327,3.866l-4.407-4.412a1.573,1.573,0,0,0-2.224,0L30.95,37.652a1.572,1.572,0,0,0,0,2.225l4.406,4.41a28.726,28.726,0,0,0-3.866,9.327H25.255a1.572,1.572,0,0,0-1.573,1.573v9.485a1.572,1.572,0,0,0,1.573,1.573h6.236a28.727,28.727,0,0,0,3.866,9.327l-4.411,4.412a1.572,1.572,0,0,0,0,2.225l6.707,6.706a1.573,1.573,0,0,0,2.224,0l4.409-4.411a28.715,28.715,0,0,0,9.327,3.866v6.236a1.573,1.573,0,0,0,1.573,1.573h9.485a1.573,1.573,0,0,0,1.573-1.573V88.371A28.714,28.714,0,0,0,75.573,84.5l4.412,4.411a1.573,1.573,0,0,0,2.224,0l6.707-6.706a1.573,1.573,0,0,0,0-2.225l-4.411-4.409a28.727,28.727,0,0,0,3.866-9.327h6.236a1.573,1.573,0,0,0,1.573-1.573V55.189a1.573,1.573,0,0,0-1.574-1.573ZM93.033,63.1H87.076a1.573,1.573,0,0,0-1.55,1.305,25.65,25.65,0,0,1-4.334,10.461,1.573,1.573,0,0,0,.174,2.018L85.579,81.1,81.1,85.579l-4.214-4.213a1.574,1.574,0,0,0-2.018-.174A25.664,25.664,0,0,1,64.4,85.527a1.573,1.573,0,0,0-1.306,1.55v5.956H56.763V87.077a1.573,1.573,0,0,0-1.305-1.55A25.664,25.664,0,0,1,45,81.192a1.574,1.574,0,0,0-2.018.174l-4.214,4.213L34.283,81.1,38.5,76.884a1.573,1.573,0,0,0,.174-2.018A25.65,25.65,0,0,1,34.336,64.4a1.573,1.573,0,0,0-1.55-1.305H26.829V56.763h5.957a1.573,1.573,0,0,0,1.55-1.305A25.65,25.65,0,0,1,38.671,45a1.573,1.573,0,0,0-.174-2.018l-4.213-4.213,4.482-4.482L42.979,38.5A1.572,1.572,0,0,0,45,38.671a25.664,25.664,0,0,1,10.46-4.335,1.573,1.573,0,0,0,1.305-1.55V26.829H63.1v5.956a1.573,1.573,0,0,0,1.305,1.55,25.664,25.664,0,0,1,10.46,4.335,1.572,1.572,0,0,0,2.018-.174L81.1,34.283l4.482,4.482-4.213,4.213A1.573,1.573,0,0,0,81.192,45a25.65,25.65,0,0,1,4.334,10.461,1.573,1.573,0,0,0,1.55,1.305h5.957Z" transform="translate(-23.682 -23.682)" fill="#fff"/>
  <path id="Path_72" data-name="Path 72" d="M65.722,49.358l.982-.776a1.573,1.573,0,1,0-1.951-2.469l-4.292,3.392a1.573,1.573,0,0,0,0,2.469l4.29,3.392A1.573,1.573,0,1,0,66.7,52.9l-.163-.129a9.847,9.847,0,0,1,4,16.355,1.574,1.574,0,0,0,2.227,2.225,12.984,12.984,0,0,0-7.049-21.991Z" transform="translate(-27.333 -25.912)" fill="#fff"/>
</svg>
