<svg id="_925748" data-name="925748" xmlns="http://www.w3.org/2000/svg" width="71.439" height="61.416" viewBox="0 0 71.439 61.416">
  <g id="Group_31" data-name="Group 31" transform="translate(0 0)">
    <g id="Group_30" data-name="Group 30">
      <path id="Path_64" data-name="Path 64" d="M71.339,63.341h0L57.85,29.473a1.4,1.4,0,0,0-1.821-.785h0L1.308,50.477a1.374,1.374,0,0,0-.561.446A1.387,1.387,0,0,0,0,52.14V88.6A1.4,1.4,0,0,0,1.4,90H60.3a1.4,1.4,0,0,0,1.4-1.4V68.688l8.852-3.526A1.4,1.4,0,0,0,71.339,63.341ZM58.9,87.2H2.8V53.543H58.9ZM23.4,50.745,46.88,41.389a11.157,11.157,0,0,0,8.04,3.467l2.342,5.89ZM61.7,65.676V52.14a1.4,1.4,0,0,0-1.4-1.4h-.022l-2.972-7.463a1.16,1.16,0,0,0-.115-.177,1.385,1.385,0,0,0-1.465-1.08,8.386,8.386,0,0,1-7.353-3.167,1.39,1.39,0,0,0-1.8-.314,1.575,1.575,0,0,0-.2.036L17.71,49.989a1.385,1.385,0,0,0-.77.749H8.235L55.764,31.813,68.215,63.079Z" transform="translate(0 -28.588)" fill="#fff"/>
      <path id="Path_65" data-name="Path 65" d="M33,208.33a8.385,8.385,0,0,1,5.661,5.654,1.4,1.4,0,0,0,1.343,1,1.272,1.272,0,0,0,.216-.032,1.3,1.3,0,0,0,.192.039H74.071a1.2,1.2,0,0,0,.171-.035,1.306,1.306,0,0,0,1.577-.96l0-.008a8.384,8.384,0,0,1,5.661-5.661,1.384,1.384,0,0,0,.962-1.543,1.411,1.411,0,0,0,.041-.208V195.359a1.262,1.262,0,0,0-.042-.208,1.382,1.382,0,0,0-.962-1.543,8.376,8.376,0,0,1-5.659-5.663,1.385,1.385,0,0,0-1.554-.962,1.336,1.336,0,0,0-.2-.039H40.414a1.323,1.323,0,0,0-.209.042,1.385,1.385,0,0,0-1.543.962A8.385,8.385,0,0,1,33,193.609a1.384,1.384,0,0,0-.962,1.543,1.416,1.416,0,0,0-.039.208v11.219a1.292,1.292,0,0,0,.039.195A1.388,1.388,0,0,0,33,208.33Zm1.8-12.4a11.128,11.128,0,0,0,6.179-6.179H73.5a11.131,11.131,0,0,0,6.18,6.179v10.08a11.141,11.141,0,0,0-6.179,6.179H40.984a11.141,11.141,0,0,0-6.179-6.179Z" transform="translate(-26.391 -159.186)" fill="#fff"/>
      <path id="Path_66" data-name="Path 66" d="M136.414,235.773A8.414,8.414,0,1,0,128,227.359,8.414,8.414,0,0,0,136.414,235.773Zm0-14.024a5.609,5.609,0,1,1-5.609,5.609A5.609,5.609,0,0,1,136.414,221.75Z" transform="translate(-105.562 -185.576)" fill="#fff"/>
      <path id="Path_67" data-name="Path 67" d="M78.1,259.152a2.1,2.1,0,1,0-2.1-2.1A2.1,2.1,0,0,0,78.1,259.152Zm0-2.8a.7.7,0,1,1-.7.7A.7.7,0,0,1,78.1,256.347Z" transform="translate(-62.678 -215.266)" fill="#fff"/>
      <path id="Path_68" data-name="Path 68" d="M254.1,259.152a2.1,2.1,0,1,0-2.1-2.1A2.1,2.1,0,0,0,254.1,259.152Zm0-2.8a.7.7,0,1,1-.7.7A.7.7,0,0,1,254.1,256.347Z" transform="translate(-207.826 -215.266)" fill="#fff"/>
    </g>
  </g>
</svg>
