<svg xmlns="http://www.w3.org/2000/svg" width="35.012" height="38.206" viewBox="0 0 35.012 38.206">
  <g id="_3034847" data-name="3034847" transform="translate(-9.662 3.082)">
    <g id="Group_1" data-name="Group 1" transform="translate(9.662 -3.082)">
      <path id="Path_4" data-name="Path 4" d="M419.04,411.732a.56.56,0,0,0-.56.56v6.363a.56.56,0,1,0,1.119,0v-6.363A.56.56,0,0,0,419.04,411.732Z" transform="translate(-388.849 -381.008)" fill="#fff"/>
      <path id="Path_5" data-name="Path 5" d="M240.857,411.732a.56.56,0,0,0-.56.56v6.363a.56.56,0,1,0,1.119,0v-6.363A.56.56,0,0,0,240.857,411.732Z" transform="translate(-223.963 -381.008)" fill="#fff"/>
      <path id="Path_6" data-name="Path 6" d="M47.489,22.4v-.7a7.221,7.221,0,0,0,4.426-5.275c.076.006.152.01.228.01a2.832,2.832,0,0,0,1.733-5.073V8.235L53.9,8.18a4.415,4.415,0,0,0,.3-2.144c-.025-.231-.058-.462-.1-.689A6.491,6.491,0,0,0,47.685,0h-.112a.56.56,0,0,0,0,1.119h.112A5.373,5.373,0,0,1,53,5.541c.036.2.065.409.087.615a3.292,3.292,0,0,1-.226,1.6,3.259,3.259,0,0,1-3.025,2.029H40.051a3.259,3.259,0,0,1-3.024-2.026l0,0a3.29,3.29,0,0,1-.226-1.6c.022-.205.052-.411.087-.613A5.373,5.373,0,0,1,42.2,1.119h2.846a.56.56,0,0,0,0-1.119H42.2a6.491,6.491,0,0,0-6.419,5.347c-.04.226-.073.457-.1.687a4.412,4.412,0,0,0,.3,2.15l0,0,.019.045v3.137a2.832,2.832,0,0,0,1.733,5.073c.071,0,.142,0,.213-.009a7.141,7.141,0,0,0,4.44,5.285V22.4A9.862,9.862,0,0,0,36.81,24.86l-4.442-4.442a.56.56,0,0,0-.4-.164H21.962a.56.56,0,0,0,0,1.119h9.779l4.277,4.277a9.9,9.9,0,0,0-2.543,6.623v1.286a.56.56,0,0,0,1.119,0V32.273a8.778,8.778,0,0,1,2.216-5.831l.218.218a.56.56,0,0,0,.792-.792l-.216-.216a8.747,8.747,0,0,1,4.8-2.124v.677a2.545,2.545,0,0,0,5.091,0v-.677A8.815,8.815,0,0,1,55.3,32.273v5.374a.56.56,0,1,0,1.119,0V32.272A9.936,9.936,0,0,0,47.489,22.4Zm4.654-7.08-.091,0c.005-.11.008-.221.008-.333V11.9c.028,0,.056,0,.083,0a1.714,1.714,0,1,1,0,3.428ZM52.757,9.8v1.047a2.83,2.83,0,0,0-.614-.068l-.083,0v-.158c0-.1,0-.208-.008-.312a4.362,4.362,0,0,0,.7-.511Zm-15.625,0a4.366,4.366,0,0,0,.7.511c0,.1-.008.208-.008.313v.158l-.083,0a2.832,2.832,0,0,0-.614.068Zm.614,5.527a1.714,1.714,0,1,1,0-3.428c.028,0,.055,0,.083,0V15.07c0,.084,0,.167,0,.251Zm1.2-.253V10.764a4.417,4.417,0,0,0,1.1.14h9.788a4.42,4.42,0,0,0,1.1-.139v4.223a6.054,6.054,0,0,1-5.951,6.078h-.044a6,6,0,0,1-6-6Zm6,10.561a1.427,1.427,0,0,1-1.426-1.426V22.043a7.185,7.185,0,0,0,1.427.142H45a7,7,0,0,0,1.372-.146v2.166a1.427,1.427,0,0,1-1.426,1.426Z" transform="translate(-21.402 0)" fill="#fff"/>
      <path id="Path_7" data-name="Path 7" d="M183.739,476.041a.56.56,0,0,0-.56.56v1.564a.56.56,0,0,0,1.119,0V476.6A.56.56,0,0,0,183.739,476.041Z" transform="translate(-171.107 -440.518)" fill="#fff"/>
      <path id="Path_8" data-name="Path 8" d="M371.219,173.652h.006a.56.56,0,0,0,.006-1.119h-.013a.56.56,0,0,0,0,1.119Z" transform="translate(-344.6 -159.658)" fill="#fff"/>
      <path id="Path_9" data-name="Path 9" d="M288.677,172.534h-.006a.563.563,0,1,0,.006,0Z" transform="translate(-268.211 -159.659)" fill="#fff"/>
      <path id="Path_10" data-name="Path 10" d="M48.52,307.939H41.442a.56.56,0,0,0,0,1.119H48.52a.56.56,0,0,0,0-1.119Z" transform="translate(-39.428 -284.96)" fill="#fff"/>
      <path id="Path_11" data-name="Path 11" d="M86.294,334.273H82.262a.56.56,0,0,0,0,1.119h4.033a.56.56,0,1,0,0-1.119Z" transform="translate(-77.202 -309.329)" fill="#fff"/>
      <path id="Path_12" data-name="Path 12" d="M86.294,360.606H82.262a.56.56,0,1,0,0,1.119h4.033a.56.56,0,1,0,0-1.119Z" transform="translate(-77.202 -333.697)" fill="#fff"/>
      <path id="Path_13" data-name="Path 13" d="M94.552,398.781H92.763a1.307,1.307,0,0,0-1.306,1.306v1.789a1.307,1.307,0,0,0,1.306,1.306h1.789a1.307,1.307,0,0,0,1.306-1.306v-1.789A1.307,1.307,0,0,0,94.552,398.781Zm.187,3.095a.187.187,0,0,1-.187.187H92.763a.187.187,0,0,1-.187-.187v-1.789a.187.187,0,0,1,.187-.187h1.789a.187.187,0,0,1,.187.187Z" transform="translate(-86.229 -369.023)" fill="#fff"/>
      <path id="Path_14" data-name="Path 14" d="M34.48,96.828a7.5,7.5,0,0,0,3.93,2.724.858.858,0,0,0,.523,0,7.5,7.5,0,0,0,3.93-2.724,6.349,6.349,0,0,0,.836-1.575,2.154,2.154,0,0,0,.124-.723V93.237a.56.56,0,1,0-1.119,0v1.293a1.037,1.037,0,0,1-.06.348,5.218,5.218,0,0,1-.688,1.294,6.382,6.382,0,0,1-3.284,2.288,6.383,6.383,0,0,1-3.284-2.288,5.479,5.479,0,0,1-.365-.578,3.168,3.168,0,0,1-.383-1.516v-4.45l4.032-.982,4.032.982v1.084a.56.56,0,0,0,1.119,0V89.428a.863.863,0,0,0-.66-.841l-4.287-1.044a.872.872,0,0,0-.409,0L34.18,88.588a.863.863,0,0,0-.66.841v4.65a4.291,4.291,0,0,0,.52,2.053A6.65,6.65,0,0,0,34.48,96.828Z" transform="translate(-32.616 -80.989)" fill="#fff"/>
      <path id="Path_15" data-name="Path 15" d="M78.9,142.543a.56.56,0,0,0,.56-.56v-.789h.789a.56.56,0,1,0,0-1.119h-.789v-.789a.56.56,0,0,0-1.119,0v.789h-.789a.56.56,0,1,0,0,1.119h.789v.789A.56.56,0,0,0,78.9,142.543Z" transform="translate(-72.843 -128.375)" fill="#fff"/>
      <path id="Path_16" data-name="Path 16" d="M308.711,216.087a.56.56,0,0,0-1.119-.04,1.353,1.353,0,0,1-2.7,0,.56.56,0,0,0-1.119.04,2.472,2.472,0,0,0,4.941,0Z" transform="translate(-282.698 -199.425)" fill="#fff"/>
    </g>
  </g>
</svg>
