<svg id="_3063073" data-name="3063073" xmlns="http://www.w3.org/2000/svg" width="77.782" height="81.947" viewBox="0 0 77.782 81.947">
  <path id="Path_73" data-name="Path 73" d="M77.337,66.361l-4.406-4.706a1.452,1.452,0,0,0-2.149,0,1.7,1.7,0,0,0,0,2.3l1.812,1.936H67.3V53.751a13.583,13.583,0,0,0,4.558.775,1.626,1.626,0,0,0,0-3.246,10.711,10.711,0,0,1-4.558-.993V38.3h4.558a1.626,1.626,0,0,0,0-3.246H67.3V18.492a26.6,26.6,0,0,1,3.55,2.683,1.459,1.459,0,0,0,1.007.408,1.475,1.475,0,0,0,1.137-.546,1.7,1.7,0,0,0-.128-2.291A30.247,30.247,0,0,0,66.45,14.32l-.013-.008a19.846,19.846,0,0,0-8.959-2.4h0a13.826,13.826,0,0,0-4.652.79,1.539,1.539,0,0,0-.878.813,1.71,1.71,0,0,0-.084,1.238A1.531,1.531,0,0,0,53.3,15.869a1.44,1.44,0,0,0,.48-.084,11.029,11.029,0,0,1,3.7-.623,19.792,19.792,0,0,1,6.773,1.694v31.6c-.791-.581-1.567-1.212-2.364-1.864-3.036-2.48-6.175-5.045-10.852-5.045a24.768,24.768,0,0,0-14.077,4.308L37,45.816A60.7,60.7,0,0,0,40.371,38.3h1.1a1.626,1.626,0,0,0,.012-3.245q.358-1.133.684-2.294a47.169,47.169,0,0,1,2.9-7.874,1.681,1.681,0,0,0-.646-2.189,1.447,1.447,0,0,0-.7-.183,1.506,1.506,0,0,0-1.349.873,50.553,50.553,0,0,0-3.12,8.442q-.462,1.647-.991,3.225H35.4a1.626,1.626,0,0,0,0,3.246h1.69a48.628,48.628,0,0,1-11.313,17.4l-.008.007A38,38,0,0,1,7.443,65.623V38.3h3.646a1.626,1.626,0,0,0,0-3.246H7.443V5.54L9.256,7.476a1.452,1.452,0,0,0,2.148,0,1.7,1.7,0,0,0,0-2.3L7,.475a1.452,1.452,0,0,0-2.149,0L.444,5.181a1.7,1.7,0,0,0,0,2.3,1.452,1.452,0,0,0,2.149,0L4.4,5.54V65.885H1.519a1.626,1.626,0,0,0,0,3.246H4.4v3.083a1.574,1.574,0,0,0,1.519,1.623,1.574,1.574,0,0,0,1.519-1.623V69.131H72.595l-1.812,1.936a1.7,1.7,0,0,0,0,2.3,1.452,1.452,0,0,0,2.148,0l4.406-4.706A1.7,1.7,0,0,0,77.337,66.361Zm-13.076-.475H16.647a42.658,42.658,0,0,0,11.128-7.75c1.069-.945,2.118-1.968,3.228-3.052,4.944-4.826,10.548-10.3,20.041-10.3,3.648,0,6.132,2.029,9.007,4.377a37.931,37.931,0,0,0,4.21,3.123Z" transform="translate(0.001 0.001)" fill="#fff"/>
  <path id="Path_74" data-name="Path 74" d="M209.99,452a1.423,1.423,0,0,0-1.423,1.423,4.273,4.273,0,0,1-4.268,4.268H180.114a4.273,4.273,0,0,1-4.268-4.268,1.423,1.423,0,0,0-2.845,0,7.122,7.122,0,0,0,7.114,7.114H204.3a7.122,7.122,0,0,0,7.114-7.114A1.423,1.423,0,0,0,209.99,452Z" transform="translate(-143.448 -378.589)" fill="#fff"/>
  <path id="Path_75" data-name="Path 75" d="M124.423,218.845h5.691a1.423,1.423,0,0,0,0-2.845h-5.691a1.423,1.423,0,0,0,0,2.845Z" transform="translate(-104.156 -181.272)" fill="#fff"/>
  <path id="Path_76" data-name="Path 76" d="M324.423,218.845h5.691a1.423,1.423,0,1,0,0-2.845h-5.691a1.423,1.423,0,1,0,0,2.845Z" transform="translate(-273.517 -181.272)" fill="#fff"/>
  <circle id="Ellipse_13" data-name="Ellipse 13" cx="1.423" cy="1.423" r="1.423" transform="translate(46.229 16.401)" fill="#fff"/>
</svg>
