<svg xmlns="http://www.w3.org/2000/svg" width="25.261" height="27.778" viewBox="0 0 25.261 27.778">
  <path id="Path_37" data-name="Path 37" d="M78.545,91.259H77.014V87.419a.625.625,0,0,0-.625-.625h-1.3V76.1a8.549,8.549,0,0,0-17.1,0V86.795h-1.3a.625.625,0,0,0-.625.625v3.839H54.534a.625.625,0,0,0-.625.625v2.824a.625.625,0,0,0,.625.625H78.545a.625.625,0,0,0,.625-.625V91.884A.625.625,0,0,0,78.545,91.259ZM59.241,76.1a7.3,7.3,0,0,1,14.6,0V86.795H68.421V80.9a3.333,3.333,0,1,0-3.762,0v5.9H59.241Zm6.333,3.888a2.083,2.083,0,1,1,1.932,0,.625.625,0,0,0-.335.553v6.251H65.908V80.543A.625.625,0,0,0,65.574,79.99ZM77.92,94.083H55.159V92.509h8.555a.625.625,0,0,0,0-1.25h-6.4V88.044H75.764v3.214h-6.4a.625.625,0,0,0,0,1.25H77.92Z" transform="translate(-53.909 -67.555)" fill="#fff"/>
</svg>
