<svg xmlns="http://www.w3.org/2000/svg" width="30.143" height="37.755" viewBox="0 0 30.143 37.755">
  <g id="_2932523" data-name="2932523" transform="translate(-51.614)">
    <g id="Group_5" data-name="Group 5" transform="translate(51.614 0)">
      <g id="Group_4" data-name="Group 4">
        <path id="Path_40" data-name="Path 40" d="M303.7,228.978a.737.737,0,0,0-.737.737v.666a.737.737,0,0,0,1.475,0v-.666A.737.737,0,0,0,303.7,228.978Z" transform="translate(-284.427 -212.093)" fill="#fff"/>
        <path id="Path_41" data-name="Path 41" d="M347.386,396.5a2.725,2.725,0,1,0,2.73,2.725A2.73,2.73,0,0,0,347.386,396.5Zm0,3.975a1.25,1.25,0,1,1,1.255-1.25A1.254,1.254,0,0,1,347.386,400.472Z" transform="translate(-323.047 -367.259)" fill="#fff"/>
        <path id="Path_42" data-name="Path 42" d="M181.475,28.2s-.252,0-.536.005V10.965c0-2.647-3.5-7.82-3.919-8.428l0,0a.71.71,0,0,0-1.218,0l0,0c-.418.608-3.919,5.781-3.919,8.428V28.2c-.285,0-.531-.005-.536-.005a5.792,5.792,0,1,0,5.067,8.615,5.8,5.8,0,1,0,5.067-8.615ZM177.145,5.484c1.1,1.852,2.318,4.217,2.318,5.48v5.086a4.515,4.515,0,0,0-2.318-1.127Zm-3.793,5.48c0-1.264,1.217-3.628,2.318-5.48v9.44a4.514,4.514,0,0,0-2.318,1.127Zm2.318,23.024a4.329,4.329,0,1,1-4.329-4.317c.265,0,1.067.011,1.2.023a.737.737,0,0,0,.813-.734V23.912a4.515,4.515,0,0,0,2.318,1.127v8.95Zm.733-10.365a3.055,3.055,0,0,1-3.051-3.051V19.391A3.055,3.055,0,0,1,176.4,16.34h.009a3.055,3.055,0,0,1,3.051,3.051v1.181a3.055,3.055,0,0,1-3.051,3.051Zm5.071,14.683a4.329,4.329,0,0,1-4.329-4.319V25.039a4.515,4.515,0,0,0,2.318-1.127v5.049a.736.736,0,0,0,.812.734c.133-.012.934-.023,1.2-.023a4.317,4.317,0,1,1,0,8.635Z" transform="translate(-157.136 -2.026)" fill="#fff"/>
        <path id="Path_43" data-name="Path 43" d="M209.961,396.5a2.725,2.725,0,1,0,2.73,2.725A2.73,2.73,0,0,0,209.961,396.5Zm0,3.975a1.25,1.25,0,1,1,1.255-1.25A1.254,1.254,0,0,1,209.961,400.472Z" transform="translate(-195.756 -367.259)" fill="#fff"/>
        <path id="Path_44" data-name="Path 44" d="M58.269,14.04a.737.737,0,0,0-.737.737V21.15H53.089V6.641a5.179,5.179,0,0,1,4.443-5.114V8.11a.737.737,0,0,0,1.475,0V.737A.737.737,0,0,0,58.269,0a6.656,6.656,0,0,0-6.655,6.641v27.4a3.7,3.7,0,0,0,7.392,0V14.777a.737.737,0,0,0-.737-.737Zm-.737,20a2.221,2.221,0,0,1-4.443,0V25.791h4.443v8.248Zm0-9.723H53.089V22.625h4.443Z" transform="translate(-51.614 0)" fill="#fff"/>
        <path id="Path_45" data-name="Path 45" d="M133.295,145.831a.737.737,0,1,0-.271.9A.743.743,0,0,0,133.295,145.831Z" transform="translate(-125.959 -134.656)" fill="#fff"/>
      </g>
    </g>
  </g>
</svg>
