<svg xmlns="http://www.w3.org/2000/svg" width="34.628" height="33.907" viewBox="0 0 34.628 33.907">
  <g id="Group_6" data-name="Group 6" transform="translate(-0.093 -0.034)">
    <path id="Fill_1" data-name="Fill 1" d="M15.916,30.405A15.911,15.911,0,0,1,9.2.068.671.671,0,0,1,9.494,0a.688.688,0,0,1,.621.4l6.4,13.694L27.173,24.756a.684.684,0,0,1,0,.983A15.817,15.817,0,0,1,15.916,30.405ZM9.173,1.632h0a14.535,14.535,0,0,0,6.757,27.4,14.6,14.6,0,0,0,9.79-3.766L15.445,14.994a.633.633,0,0,1-.138-.194L9.173,1.632Z" transform="translate(0.093 3.535)" fill="#fff"/>
    <path id="Fill_3" data-name="Fill 3" d="M11.462,25.96a.708.708,0,0,1-.485-.208L.2,14.98A.674.674,0,0,1,.066,14.2L6.5.4A.678.678,0,0,1,7.418.068,15.962,15.962,0,0,1,16.377,11.74a15.9,15.9,0,0,1-4.431,14.013A.649.649,0,0,1,11.462,25.96ZM7.446,1.632h0L1.52,14.357l9.928,9.928a14.537,14.537,0,0,0,3.544-12.31A14.409,14.409,0,0,0,7.446,1.632Z" transform="translate(18.103 2.137)" fill="#fff"/>
    <path id="Fill_4" data-name="Fill 4" d="M12.877,1.423A15.281,15.281,0,0,0,0,1.423l6.438,13.8Z" transform="translate(10.969 0.034)" fill="#fff"/>
  </g>
</svg>
