<svg xmlns="http://www.w3.org/2000/svg" width="41.822" height="39.817" viewBox="0 0 41.822 39.817">
  <path id="Path_53" data-name="Path 53" d="M41.772,33.819a4.879,4.879,0,0,0-4.132-4.132V28.42a6.152,6.152,0,0,0-5.925-6.343A6.176,6.176,0,0,0,25.79,28.23h.04l-.04.007V41.974c0,4.391-3.283,7.957-7.319,7.957s-7.319-3.571-7.319-7.957v-1.19c1.011,0,2.091-.733,2.091-2.788V36.243a9.885,9.885,0,0,0,7.667-9.34V25.449H19.517l-.029-9.072a3.489,3.489,0,0,0-2.868-3.412,2.08,2.08,0,1,0-.047,1.421,2.091,2.091,0,0,1,1.519,1.995l.031,9.068H16.729v1.474a5.543,5.543,0,0,1-4.012,5.2,6.338,6.338,0,0,1-3.834,0,5.54,5.54,0,0,1-4-5.2V25.449H2.788V16.388a2.091,2.091,0,0,1,1.547-2.01,2.1,2.1,0,1,0-.043-1.416,3.485,3.485,0,0,0-2.9,3.426v9.061H0V26.9a9.884,9.884,0,0,0,7.667,9.344V38c0,2.056,1.08,2.788,2.091,2.788v1.19c0,5.158,3.908,9.351,8.713,9.351s8.713-4.2,8.713-9.351v-13.7a4.77,4.77,0,0,1,4.531-4.8,4.759,4.759,0,0,1,4.531,4.949v1.265a4.879,4.879,0,1,0,5.526,4.132ZM14.638,14.3a.7.7,0,1,1,.7-.7A.7.7,0,0,1,14.638,14.3ZM6.273,12.9a.7.7,0,1,1-.7.7A.7.7,0,0,1,6.273,12.9Zm-4.879,14v-.056H3.485v.079A6.926,6.926,0,0,0,8.46,33.449a7.756,7.756,0,0,0,4.683,0,6.927,6.927,0,0,0,4.98-6.526v-.079h1.394V26.9a8.545,8.545,0,0,1-7.11,8.115,9.943,9.943,0,0,1-2.941.144,9.1,9.1,0,0,1-.963-.146A8.542,8.542,0,0,1,1.394,26.9ZM9.758,39.39c-.627,0-.7-.976-.7-1.394V36.517c.056.007.113.01.169.015s.139.013.209.02c.33.029.662.049,1,.049h.035c.335,0,.666-.02.994-.049.07-.006.144-.012.215-.02.055-.006.112-.008.167-.015V38c0,.418-.07,1.394-.7,1.394ZM36.942,38a3.485,3.485,0,1,1,3.485-3.485A3.485,3.485,0,0,1,36.942,38Z" transform="translate(0 -11.508)" fill="#fff"/>
</svg>
