<svg xmlns="http://www.w3.org/2000/svg" width="21.742" height="37.593" viewBox="0 0 21.742 37.593">
  <path id="Path_42" data-name="Path 42" d="M181.475,28.2s-.252,0-.536.005V10.965c0-2.647-3.5-7.82-3.919-8.428l0,0a.71.71,0,0,0-1.218,0l0,0c-.418.608-3.919,5.781-3.919,8.428V28.2c-.285,0-.531-.005-.536-.005a5.792,5.792,0,1,0,5.067,8.615,5.8,5.8,0,1,0,5.067-8.615ZM177.145,5.484c1.1,1.852,2.318,4.217,2.318,5.48v5.086a4.515,4.515,0,0,0-2.318-1.127Zm-3.793,5.48c0-1.264,1.217-3.628,2.318-5.48v9.44a4.514,4.514,0,0,0-2.318,1.127Zm2.318,23.024a4.329,4.329,0,1,1-4.329-4.317c.265,0,1.067.011,1.2.023a.737.737,0,0,0,.813-.734V23.912a4.515,4.515,0,0,0,2.318,1.127v8.95Zm.733-10.365a3.055,3.055,0,0,1-3.051-3.051V19.391A3.055,3.055,0,0,1,176.4,16.34h.009a3.055,3.055,0,0,1,3.051,3.051v1.181a3.055,3.055,0,0,1-3.051,3.051Zm5.071,14.683a4.329,4.329,0,0,1-4.329-4.319V25.039a4.515,4.515,0,0,0,2.318-1.127v5.049a.736.736,0,0,0,.812.734c.133-.012.934-.023,1.2-.023a4.317,4.317,0,1,1,0,8.635Z" transform="translate(-165.537 -2.188)" fill="#fff"/>
</svg>
