<svg xmlns="http://www.w3.org/2000/svg" width="42.615" height="42.615" viewBox="0 0 42.615 42.615">
  <path id="Path_20" data-name="Path 20" d="M23.37,13.747V11h1.375a1.376,1.376,0,0,0,1.375-1.375V8.935h3.756L31.8,11.822l2.62-7.206,1.556,3.632h6.639V6.873H36.882L34.315.883,31.436,8.8l-.825-1.238H26.119V1.375A1.376,1.376,0,0,0,24.744,0H17.871A1.376,1.376,0,0,0,16.5,1.375V4.811H10.544L8.988,8.443,6.368,1.238,4.443,4.124H0V5.5H5.179L6,4.261l2.879,7.916,2.568-5.991H16.5V9.623A1.376,1.376,0,0,0,17.871,11h1.375v2.749H20.62v4.124H17.184a7.591,7.591,0,0,0-3.381.8l-.477.238A3.43,3.43,0,0,0,10.063,16.5h-2.5A3.4,3.4,0,0,0,5.5,17.2V14.434a2.062,2.062,0,0,0-4.124,0v10.31A1.376,1.376,0,0,0,0,26.119v1.375a1.376,1.376,0,0,0,1.375,1.375H3.437v7.568a3.434,3.434,0,1,0,4.124,0V28.868H35.054v7.564a3.437,3.437,0,1,0,4.124,0V28.868h2.062a1.376,1.376,0,0,0,1.375-1.375V26.119a1.376,1.376,0,0,0-1.375-1.375h-.035a7.568,7.568,0,0,0-7.526-6.873H21.995V13.747ZM7.561,17.871h2.5a2.062,2.062,0,1,1,0,4.124h-2.5a2.062,2.062,0,0,1,0-4.124Zm2.749,5.5a2.059,2.059,0,0,1,1.935,1.375H5.625A2.059,2.059,0,0,1,7.561,23.37ZM5.5,22.664l.021.018L5.5,22.7Zm-2.749-8.23a.687.687,0,1,1,1.375,0v10.31H2.749ZM5.5,41.24a2.065,2.065,0,0,1-2.062-2.062,2.033,2.033,0,0,1,.13-.678,2.05,2.05,0,0,0,3.864,0,2.034,2.034,0,0,1,.13.677A2.065,2.065,0,0,1,5.5,41.24ZM6.186,37.8a.687.687,0,1,1-1.375,0V28.868H6.186Zm30.93,3.437a2.065,2.065,0,0,1-2.062-2.062,2.034,2.034,0,0,1,.13-.677,2.05,2.05,0,0,0,3.864,0,2.034,2.034,0,0,1,.13.677,2.065,2.065,0,0,1-2.062,2.062ZM37.8,37.8a.687.687,0,1,1-1.375,0V28.868H37.8Zm2.021-13.06H37.116v1.375h4.124v1.375H1.375V26.119H35.742V24.744H13.677a3.446,3.446,0,0,0-1.451-2.164,3.415,3.415,0,0,0,1.228-2.2l.964-.482a6.214,6.214,0,0,1,2.766-.653h16.5a6.193,6.193,0,0,1,6.145,5.5ZM17.871,1.375h6.873V9.623H17.871ZM21.995,11v1.375H20.62V11Zm0,0" transform="translate(0 0)" fill="#fff"/>
</svg>
