<svg xmlns="http://www.w3.org/2000/svg" width="52.374" height="57.501" viewBox="0 0 52.374 57.501">
  <path id="user_1_" data-name="user (1)" d="M51.374,56.5H0V48.31H.108a15.587,15.587,0,0,1,4.562-9,25.221,25.221,0,0,1,11.2-6.337l.989-.278.659.726a12.075,12.075,0,0,0,3.788,2.721,10.945,10.945,0,0,0,4.388.927,10.715,10.715,0,0,0,4.23-.867,11.705,11.705,0,0,0,3.708-2.561l.679-.691.995.3a26.627,26.627,0,0,1,11.1,6.5,16.46,16.46,0,0,1,4.719,8.567h.245V56.5ZM15.865,35.9a21.9,21.9,0,0,0-8.883,5.24,12.62,12.62,0,0,0-3.856,8.234v.176h.008l-.028.133v4.041H48.263v-3.41l-.048-.509a13.572,13.572,0,0,0-4.122-8.234,23.062,23.062,0,0,0-8.881-5.4A14.688,14.688,0,0,1,31.245,38.7a14.161,14.161,0,0,1-5.551,1.138,14.011,14.011,0,0,1-5.75-1.217A14.778,14.778,0,0,1,15.865,35.9Zm9.829-2.581A13.8,13.8,0,0,1,15.138,28.3a17.787,17.787,0,0,1-4.189-11.638A17.789,17.789,0,0,1,15.138,5.022a13.581,13.581,0,0,1,21.09,0,17.8,17.8,0,0,1,4.191,11.639A17.8,17.8,0,0,1,36.228,28.3,13.755,13.755,0,0,1,25.694,33.321Zm0-30.546a10.71,10.71,0,0,0-8.108,3.943,15.123,15.123,0,0,0-3.525,9.943,15.123,15.123,0,0,0,3.525,9.947,10.656,10.656,0,0,0,8.108,3.938,10.636,10.636,0,0,0,8.088-3.938,15.123,15.123,0,0,0,3.524-9.947,15.122,15.122,0,0,0-3.524-9.943A10.691,10.691,0,0,0,25.694,2.775Z" transform="translate(0.5 0.5)" fill="#fff" stroke="#fff" stroke-width="1"/>
</svg>
