<svg id="Group_5" data-name="Group 5" xmlns="http://www.w3.org/2000/svg" width="26.212" height="23.952" viewBox="0 0 26.212 23.952">
  <g id="Group_4" data-name="Group 4">
    <path id="Path_15" data-name="Path 15" d="M4.812,0H3.584A3.444,3.444,0,0,0,0,3.275v17.4a3.444,3.444,0,0,0,3.584,3.275H4.812A3.444,3.444,0,0,0,8.4,20.677V3.275A3.444,3.444,0,0,0,4.812,0ZM6.348,20.677a1.476,1.476,0,0,1-1.536,1.4H3.584a1.476,1.476,0,0,1-1.536-1.4V3.275a1.476,1.476,0,0,1,1.536-1.4H4.812a1.476,1.476,0,0,1,1.536,1.4Z" fill="#0a6876"/>
    <path id="Path_16" data-name="Path 16" d="M218.082,0h-8.5A3.444,3.444,0,0,0,206,3.275V4.4a3.444,3.444,0,0,0,3.584,3.275h8.5A3.444,3.444,0,0,0,221.666,4.4V3.275A3.444,3.444,0,0,0,218.082,0Zm1.536,4.4a1.476,1.476,0,0,1-1.536,1.4h-8.5a1.476,1.476,0,0,1-1.536-1.4V3.275a1.476,1.476,0,0,1,1.536-1.4h8.5a1.476,1.476,0,0,1,1.536,1.4Z" transform="translate(-195.454)" fill="#0a6876"/>
    <path id="Path_17" data-name="Path 17" d="M218.082,207h-8.5A3.444,3.444,0,0,0,206,210.275v7.719a3.444,3.444,0,0,0,3.584,3.275h8.5a3.444,3.444,0,0,0,3.584-3.275,1.028,1.028,0,0,0-2.048,0,1.476,1.476,0,0,1-1.536,1.4h-8.5a1.476,1.476,0,0,1-1.536-1.4v-7.719a1.476,1.476,0,0,1,1.536-1.4h8.5a1.476,1.476,0,0,1,1.536,1.4v3.041a1.028,1.028,0,0,0,2.048,0v-3.041A3.444,3.444,0,0,0,218.082,207Z" transform="translate(-195.454 -197.316)" fill="#0a6876"/>
  </g>
</svg>
