<svg id="x-ray" xmlns="http://www.w3.org/2000/svg" width="23.5" height="23.5" viewBox="0 0 23.5 23.5">
  <path id="Path_30" data-name="Path 30" d="M129.679,36.2c.81,0,1.679-1.478,1.679-2.518a1.679,1.679,0,1,0-3.357,0C128,34.719,128.868,36.2,129.679,36.2Z" transform="translate(-122.964 -32)" fill="#0a6876"/>
  <path id="Path_31" data-name="Path 31" d="M449.679,56.216V32.8A2.1,2.1,0,0,0,448,34.856v19.3A2.1,2.1,0,0,0,449.679,56.216Z" transform="translate(-426.178 -32.758)" fill="#0a6876"/>
  <path id="Path_32" data-name="Path 32" d="M184,403.357a.839.839,0,0,0,1.679,0V400H184Z" transform="translate(-176.027 -380.696)" fill="#0a6876"/>
  <path id="Path_33" data-name="Path 33" d="M104,403.357a.839.839,0,0,0,1.679,0V400H104Z" transform="translate(-100.223 -380.696)" fill="#0a6876"/>
  <path id="Path_34" data-name="Path 34" d="M72.736,128H66.861a2.1,2.1,0,0,0-2.056,1.679h9.987A2.1,2.1,0,0,0,72.736,128Z" transform="translate(-63.084 -122.964)" fill="#0a6876"/>
  <path id="Path_35" data-name="Path 35" d="M138.558,336.839a1.261,1.261,0,0,0,1.187-.839h-2.374A1.261,1.261,0,0,0,138.558,336.839Z" transform="translate(-131.844 -320.053)" fill="#0a6876"/>
  <path id="Path_36" data-name="Path 36" d="M45.429,176H32v10.911H45.429Zm-2.518,4.616a.42.42,0,0,1-.389-.263,16.367,16.367,0,0,0-3.247-.157h-.14v1.259h.027c1.851,0,2.758.012,3.142.395a.618.618,0,0,1,.188.445.42.42,0,0,1-.818.133,11.9,11.9,0,0,0-2.511-.134h-.028v1.26h1.259a.42.42,0,0,1,.42.42,2.1,2.1,0,0,1-4.2,0,.42.42,0,0,1,.42-.42h1.259v-1.259h-.028a11.911,11.911,0,0,0-2.511.134.42.42,0,0,1-.818-.133.618.618,0,0,1,.188-.445c.384-.383,1.291-.4,3.142-.395h.027V180.2h-.14a16.354,16.354,0,0,0-3.247.157.42.42,0,0,1-.809-.157.6.6,0,0,1,.18-.423c.406-.4,1.483-.421,3.878-.417h.139V178.1h-.028a11.928,11.928,0,0,0-2.511.134.42.42,0,0,1-.818-.133.618.618,0,0,1,.188-.445c.384-.383,1.291-.4,3.142-.395h.027a.42.42,0,0,1,.839,0h.027c1.851,0,2.758.012,3.142.395a.618.618,0,0,1,.188.445.42.42,0,0,1-.818.133,11.916,11.916,0,0,0-2.511-.134h-.028v1.259h.139c2.4,0,3.472.012,3.878.417a.6.6,0,0,1,.18.423A.42.42,0,0,1,42.911,180.616Z" transform="translate(-32 -168.446)" fill="#0a6876"/>
  <path id="Path_37" data-name="Path 37" d="M400.424,440h0a.422.422,0,1,0,.424.423A.422.422,0,0,0,400.42,440Z" transform="translate(-380.696 -418.598)" fill="#0a6876"/>
  <path id="Path_38" data-name="Path 38" d="M400.424,408h0a.422.422,0,1,0,.424.423A.422.422,0,0,0,400.42,408Z" transform="translate(-380.696 -388.277)" fill="#0a6876"/>
  <path id="Path_39" data-name="Path 39" d="M400.424,376h0a.422.422,0,1,0,.424.423A.422.422,0,0,0,400.42,376Z" transform="translate(-380.696 -357.955)" fill="#0a6876"/>
  <path id="Path_40" data-name="Path 40" d="M400.424,344h0a.422.422,0,1,0,.424.423A.422.422,0,0,0,400.42,344Z" transform="translate(-380.696 -327.634)" fill="#0a6876"/>
  <path id="Path_41" data-name="Path 41" d="M400.424,312h0a.422.422,0,1,0,.424.423A.422.422,0,0,0,400.42,312Z" transform="translate(-380.696 -297.312)" fill="#0a6876"/>
  <path id="Path_42" data-name="Path 42" d="M400.424,280h0a.422.422,0,1,0,.424.423A.422.422,0,0,0,400.42,280Z" transform="translate(-380.696 -266.991)" fill="#0a6876"/>
  <path id="Path_43" data-name="Path 43" d="M400.424,248h0a.422.422,0,1,0,.424.423A.422.422,0,0,0,400.42,248Z" transform="translate(-380.696 -236.67)" fill="#0a6876"/>
  <path id="Path_44" data-name="Path 44" d="M400.424,216h0a.422.422,0,1,0,.424.423A.422.422,0,0,0,400.42,216Z" transform="translate(-380.696 -206.348)" fill="#0a6876"/>
  <path id="Path_45" data-name="Path 45" d="M400.424,56h0a.422.422,0,1,0,.424.423A.422.422,0,0,0,400.42,56Z" transform="translate(-380.696 -54.741)" fill="#0a6876"/>
  <path id="Path_46" data-name="Path 46" d="M400.424,184h0a.422.422,0,1,0,.424.423A.422.422,0,0,0,400.42,184Z" transform="translate(-380.696 -176.027)" fill="#0a6876"/>
  <path id="Path_47" data-name="Path 47" d="M400.424,152h0a.422.422,0,1,0,.424.423A.422.422,0,0,0,400.42,152Z" transform="translate(-380.696 -145.705)" fill="#0a6876"/>
  <path id="Path_48" data-name="Path 48" d="M400.424,120h0a.422.422,0,1,0,.424.423A.422.422,0,0,0,400.42,120Z" transform="translate(-380.696 -115.384)" fill="#0a6876"/>
  <path id="Path_49" data-name="Path 49" d="M400.424,88h0a.422.422,0,1,0,.424.423A.422.422,0,0,0,400.42,88Z" transform="translate(-380.696 -85.062)" fill="#0a6876"/>
  <path id="Path_50" data-name="Path 50" d="M232.393,76.563V56.42a.42.42,0,0,0-.42-.42H224.42a.42.42,0,0,0,0,.839h7.134v19.3h-4.616a.42.42,0,0,0,0,.839h5.036A.42.42,0,0,0,232.393,76.563Z" transform="translate(-213.928 -54.741)" fill="#0a6876"/>
</svg>
