<svg id="g1782" xmlns="http://www.w3.org/2000/svg" width="19.316" height="25.261" viewBox="0 0 19.316 25.261">
  <g id="g1784">
    <g id="g1786" transform="translate(1.865)">
      <path id="path1788" d="M36.88,5.3a2.651,2.651,0,1,0-2.651-2.651A2.651,2.651,0,0,0,36.88,5.3Z" transform="translate(-34.229)"/>
      <path id="path1790" d="M82.882,48.653" transform="translate(-80.231 -46.002)"/>
    </g>
    <path id="path1792" d="M45.293,108.059a2.355,2.355,0,1,1,4.631-.858l1.2,5.976,4.472.009a1.952,1.952,0,0,1,1.985,2.011v8.125a1.407,1.407,0,1,1-2.809-.035v-6.323H49.058A2.36,2.36,0,0,1,46.682,115Z" transform="translate(-42.791 -99.533)"/>
    <path id="path1794" d="M9.885,171a1.1,1.1,0,1,1,.02,2.195H5.8a4.771,4.771,0,0,1-4.5-3.814L.023,163.172a1.058,1.058,0,1,1,2.07-.436L3.3,168.679A2.789,2.789,0,0,0,6.125,171Z" transform="translate(0 -153.039)"/>
  </g>
  <g id="g1796" transform="translate(11.566 0.111)">
    <path id="path1798" d="M276.781,32.568l1.973-.956a.227.227,0,1,0-.2-.408l-1.676.755V29.975a.235.235,0,0,0-.471,0l.007,2.376A.249.249,0,0,0,276.781,32.568Z" transform="translate(-272.914 -28.237)"/>
    <g id="g1800">
      <path id="path1802" d="M216.149,9.783a3.875,3.875,0,1,0-3.875-3.875A3.875,3.875,0,0,0,216.149,9.783Z" transform="translate(-212.274 -2.032)"/>
      <path id="path1804" d="M283.4,73.156" transform="translate(-279.524 -69.281)"/>
    </g>
    <g id="g1806" transform="translate(0.658 0.658)">
      <path id="path1808" d="M227.571,20.545a3.217,3.217,0,1,0-3.217-3.217A3.217,3.217,0,0,0,227.571,20.545Z" transform="translate(-224.354 -14.111)" fill="#fff"/>
      <path id="path1810" d="M283.4,73.156" transform="translate(-280.182 -69.939)" fill="#fff"/>
    </g>
    <path id="path1812" d="M276.781,32.568l1.973-.956a.227.227,0,1,0-.2-.408l-1.676.755V29.975a.235.235,0,0,0-.471,0l.007,2.376A.249.249,0,0,0,276.781,32.568Z" transform="translate(-272.914 -28.237)"/>
  </g>
</svg>
