<svg id="Icon_Walk-in" xmlns="http://www.w3.org/2000/svg" width="16.286" height="24.994" viewBox="0 0 16.286 24.994">
  <circle id="Ellipse_6" data-name="Ellipse 6" cx="2.325" cy="2.325" r="2.325" transform="translate(7.273)"/>
  <path id="Path_55" data-name="Path 55" d="M35.471,29.161l-2.993-.988s-1.657-3.836-1.715-3.953A2.337,2.337,0,0,0,28.728,23a2.248,2.248,0,0,0-.988.233l-4.069,1.6a1.151,1.151,0,0,0-.639.639l-1.453,3.488a1.165,1.165,0,0,0,1.075,1.6,1.127,1.127,0,0,0,1.075-.727l1.192-3.023,1.221-.465-2.005,9.794-3.894,4.737a1.153,1.153,0,0,0,.145,1.628,1.116,1.116,0,0,0,.727.262,1.128,1.128,0,0,0,.9-.436l4.069-4.941a1.106,1.106,0,0,0,.232-.494l.7-3.371,3.139,2.267V41.6a1.163,1.163,0,1,0,2.325,0V35.206a1.129,1.129,0,0,0-.465-.93l-2.819-2.063.785-3.923.552,1.279a1.257,1.257,0,0,0,.7.639l3.488,1.163a1.472,1.472,0,0,0,.378.058,1.19,1.19,0,0,0,1.1-.785A1.169,1.169,0,0,0,35.471,29.161Z" transform="translate(-19.973 -17.769)"/>
</svg>
