<svg id="Icon_Call" xmlns="http://www.w3.org/2000/svg" width="25.099" height="24.994" viewBox="0 0 25.099 24.994">
  <path id="Icon_Call-2" data-name="Icon_Call" d="M20.039,12.612a.666.666,0,0,0,.676.676.621.621,0,0,0,.676-.676,8.469,8.469,0,0,0-8.444-8.444.666.666,0,0,0-.676.676.621.621,0,0,0,.676.676A7.028,7.028,0,0,1,20.039,12.612ZM12.271,8.222a.666.666,0,0,0,.676.676,3.6,3.6,0,0,1,3.631,3.631.666.666,0,0,0,.676.676.621.621,0,0,0,.676-.676,4.9,4.9,0,0,0-4.9-4.9C12.524,7.631,12.271,7.884,12.271,8.222ZM12.862.2a.666.666,0,0,0-.676.676.621.621,0,0,0,.676.676A11.1,11.1,0,0,1,23.923,12.612a.666.666,0,0,0,.676.676.621.621,0,0,0,.676-.676A12.487,12.487,0,0,0,12.862.2Zm3.546,14.777a.645.645,0,0,0-.422-.169h0a.645.645,0,0,0-.422.169l-1.351,1.351a1.325,1.325,0,0,1-1.858,0L9.231,13.457a1.325,1.325,0,0,1,0-1.858l1.52-1.52a.663.663,0,0,0,0-.929L4.5,2.986a.612.612,0,0,0-.844,0c-.084.084-2.027,2.027-2.449,2.533C.027,6.7-.142,9.15.7,11.261c1.858,4.644,8.022,10.3,13.172,13.426a5.6,5.6,0,0,0,2.449.507h0a5.186,5.186,0,0,0,3.462-1.182c1.1-.929,2.364-2.28,2.449-2.364a.562.562,0,0,0,0-.844ZM18.941,23a3.722,3.722,0,0,1-2.618.844h0a4.049,4.049,0,0,1-1.773-.338C8.724,20.043,3.4,14.723,1.885,10.755c-.676-1.773-.422-3.715.169-4.391L4.08,4.337,9.315,9.573l-1.1,1.1a2.548,2.548,0,0,0,0,3.631l3.124,2.871a2.713,2.713,0,0,0,3.631,0l.929-.929,4.9,4.9A9.666,9.666,0,0,1,18.941,23Z" transform="translate(-0.175 -0.2)" fill="rgba(0,0,0,0.9)"/>
</svg>
