<svg id="Icon_Dollar1" xmlns="http://www.w3.org/2000/svg" width="24.994" height="24.994" viewBox="0 0 24.994 24.994">
  <path id="Path_53" data-name="Path 53" d="M85.586,73.089a12.5,12.5,0,1,0,12.5,12.5A12.511,12.511,0,0,0,85.586,73.089Zm0,23.023A10.526,10.526,0,1,1,96.112,85.586,10.537,10.537,0,0,1,85.586,96.112Z" transform="translate(-73.089 -73.089)" fill="#fe5578"/>
  <path id="Path_54" data-name="Path 54" d="M194.993,151c0-.791,1.156-.926,2.159-.926a8.117,8.117,0,0,1,3.317,1l.212-2.179a8.181,8.181,0,0,0-3.066-.752l.308-2.218H195.86l.309,2.218c-2.661.25-3.529,1.793-3.529,3.085,0,3.259,6.074,2.565,6.074,4.57,0,.753-.713,1.022-1.967,1.022a5.368,5.368,0,0,1-3.625-1.215l-.328,2.449a8.176,8.176,0,0,0,3.375.772l-.309,2.14h2.063l-.308-2.16c3.124-.27,3.683-1.929,3.683-3.027C201.3,151.907,194.993,152.871,194.993,151Z" transform="translate(-184.472 -140.952)" fill="#fe5578"/>
</svg>
