<svg id="Surgery_Theatre_Icon" data-name="Surgery Theatre Icon" xmlns="http://www.w3.org/2000/svg" width="29.999" height="30" viewBox="0 0 29.999 30">
  <line id="Line_11" data-name="Line 11" y2="8.121" transform="translate(0.647)" fill="none" stroke="#fff" stroke-width="1"/>
  <line id="Line_12" data-name="Line 12" y2="8.121" transform="translate(29.352)" fill="none" stroke="#fff" stroke-width="1"/>
  <line id="Line_13" data-name="Line 13" y2="6.219" transform="translate(17.614 0.017)" fill="none" stroke="#fff" stroke-width="1"/>
  <line id="Line_14" data-name="Line 14" y2="6.219" transform="translate(12.512 0.017)" fill="none" stroke="#fff" stroke-width="1"/>
  <line id="Line_15" data-name="Line 15" x2="2.444" y2="2.284" transform="translate(0.647 8.012)" fill="none" stroke="#fff" stroke-width="1"/>
  <line id="Line_16" data-name="Line 16" x1="2.532" y2="2.429" transform="translate(26.821 8.012)" fill="none" stroke="#fff" stroke-width="1"/>
  <g id="Path_27" data-name="Path 27" transform="translate(8.365 6.12)" fill="none">
    <path d="M2.744,0H10.7l2.571,1.848a1,1,0,0,1-1.021.985H1.021A1,1,0,0,1,0,1.848Z" stroke="none"/>
    <path d="M 3.049654960632324 1.000002980232239 L 1.812036514282227 1.833303093910217 L 11.53471946716309 1.833303093910217 L 10.37517261505127 1.000002980232239 L 3.049654960632324 1.000002980232239 M 2.744372367858887 3.099441528320313e-06 L 10.69723224639893 3.099441528320313e-06 L 13.26848220825195 1.847813010215759 C 13.26848220825195 2.392083168029785 12.81152248382568 2.833302974700928 12.24783229827881 2.833302974700928 L 1.020651817321777 2.833302974700928 C 0.4569616317749023 2.833302974700928 1.9073486328125e-06 2.392083168029785 1.9073486328125e-06 1.847813010215759 L 2.744372367858887 3.099441528320313e-06 Z" stroke="none" fill="#fff"/>
  </g>
  <line id="Line_17" data-name="Line 17" y2="1.689" transform="translate(16.594 8.927)" fill="none" stroke="#fff" stroke-width="1"/>
  <line id="Line_18" data-name="Line 18" y2="1.689" transform="translate(13.404 8.927)" fill="none" stroke="#fff" stroke-width="1"/>
  <g id="Rectangle_23" data-name="Rectangle 23" transform="translate(10.876 8.661)" fill="none" stroke="#fff" stroke-width="1">
    <path d="M0,0H8.274a0,0,0,0,1,0,0V0a2,2,0,0,1-2,2H2A2,2,0,0,1,0,0V0A0,0,0,0,1,0,0Z" stroke="none"/>
    <path d="M.533.5H7.741a.033.033,0,0,1,.033.033v0A.964.964,0,0,1,6.81,1.5H1.464A.964.964,0,0,1,.5.533v0A.033.033,0,0,1,.533.5Z" fill="none"/>
  </g>
  <g id="Path_29" data-name="Path 29" transform="translate(8.132 9.794) rotate(135)" fill="none">
    <path d="M0,0,8.275.145A3.005,3.005,0,0,1,5.2,3.225L3.19,3.19A3.271,3.271,0,0,1,0,0Z" stroke="none"/>
    <path d="M 1.281496524810791 1.022613763809204 C 1.661473274230957 1.703925967216492 2.385697841644287 2.175305843353271 3.207067489624023 2.189699411392212 L 5.213227272033691 2.224849224090576 C 5.226147651672363 2.225079536437988 5.238837242126465 2.225189208984375 5.251697540283203 2.225189208984375 C 5.806707382202148 2.225189208984375 6.321497440338135 2.012349367141724 6.701257228851318 1.625879406929016 C 6.84800910949707 1.476532697677612 6.968517303466797 1.307346940040588 7.060591697692871 1.123888254165649 L 1.281496524810791 1.022613763809204 M -2.86102294921875e-06 -7.152557373046875e-07 L 8.27537727355957 0.1450192928314209 C 8.305387496948242 1.85741114616394 6.956395626068115 3.22519063949585 5.251700401306152 3.22519063949585 C 5.232976913452148 3.22519063949585 5.214495658874512 3.225028991699219 5.195687294006348 3.224699258804321 L 3.189547538757324 3.189549446105957 C 1.458347320556641 3.159209251403809 0.03033733367919922 1.731199383735657 -2.86102294921875e-06 -7.152557373046875e-07 Z" stroke="none" fill="#fff"/>
  </g>
  <g id="Path_30" data-name="Path 30" transform="translate(27.719 15.645) rotate(-135)" fill="none">
    <path d="M0,.144,8.276,0a3.271,3.271,0,0,1-3.19,3.19L3.08,3.224A3.005,3.005,0,0,1,0,.144Z" stroke="none"/>
    <path d="M 6.994330883026123 1.021465539932251 L 1.215203285217285 1.122740983963013 C 1.307276248931885 1.306237459182739 1.427780151367188 1.475428700447083 1.57454776763916 1.624791264533997 C 1.954267501831055 2.011221408843994 2.469077587127686 2.224041223526001 3.024137496948242 2.224041223526001 C 3.036887645721436 2.224041223526001 3.049697875976563 2.223931312561035 3.062627792358398 2.223701238632202 L 5.068767547607422 2.188551425933838 C 5.890137672424316 2.174157857894897 6.614356994628906 1.702777862548828 6.994330883026123 1.021465539932251 M 8.275827407836914 -0.001148700714111328 C 8.245488166809082 1.730051279067993 6.817487716674805 3.158061265945435 5.086287498474121 3.188401222229004 L 3.080147743225098 3.223551273345947 C 3.061445236206055 3.223879098892212 3.04275369644165 3.224042415618896 3.024134635925293 3.224042415618896 C 1.319290637969971 3.224042415618896 -0.02954483032226563 1.856368780136108 0.0004673004150390625 0.1438713073730469 L 8.275827407836914 -0.001148700714111328 Z" stroke="none" fill="#fff"/>
  </g>
  <line id="Line_20" data-name="Line 20" x1="2.202" y1="2.094" transform="translate(1.888 11.457)" fill="none" stroke="#fff" stroke-width="1"/>
  <line id="Line_21" data-name="Line 21" x1="2.131" y1="2.116" transform="translate(3.963 9.485)" fill="none" stroke="#fff" stroke-width="1"/>
  <line id="Line_22" data-name="Line 22" y1="2.094" x2="2.115" transform="translate(25.908 11.457)" fill="none" stroke="#fff" stroke-width="1"/>
  <line id="Line_23" data-name="Line 23" y1="2.116" x2="2.218" transform="translate(23.817 9.485)" fill="none" stroke="#fff" stroke-width="1"/>
  <line id="Line_24" data-name="Line 24" y2="2.099" transform="translate(15.064 11.58)" fill="none" stroke="#fff" stroke-width="1"/>
  <line id="Line_25" data-name="Line 25" x2="0.032" y2="2.118" transform="translate(17.581 11.597) rotate(-30)" fill="none" stroke="#fff" stroke-width="1"/>
  <line id="Line_26" data-name="Line 26" x1="0.032" y2="2.118" transform="translate(12.517 11.581) rotate(30)" fill="none" stroke="#fff" stroke-width="1"/>
  <g id="Path_28" data-name="Path 28" transform="translate(42.852 39.119)" fill="none">
    <path d="M-32.639-20.949H-17.9A1.882,1.882,0,0,1-15.988-19.1v1.109H-34.7l-4.867-4.927c-.574-.654,0-.973,0-.973h3.827Z" stroke="none"/>
    <path d="M -38.13571929931641 -22.89251327514648 L -34.28327941894531 -18.99220657348633 L -16.98784255981445 -18.99274253845215 L -16.98784255981445 -19.10145378112793 C -16.98784255981445 -19.56893348693848 -17.39774322509766 -19.94926452636719 -17.90157318115234 -19.94926452636719 L -32.63936614990234 -19.94926452636719 L -33.03835296630859 -19.94926452636719 L -33.32775115966797 -20.22392463684082 L -36.13956451416016 -22.89251327514648 L -38.13571929931641 -22.89251327514648 M -39.56770324707031 -23.89251327514648 L -35.74057388305664 -23.89251327514648 L -32.63936614990234 -20.94926452636719 L -17.90157318115234 -20.94926452636719 C -16.84465408325195 -20.94926452636719 -15.98784255981445 -20.12197494506836 -15.98784255981445 -19.10145378112793 L -15.98784255981445 -17.99277496337891 L -34.70110321044922 -17.99219512939453 C -34.70110321044922 -17.99219512939453 -34.70110321044922 -17.99219512939453 -39.56770324707031 -22.91926383972168 C -40.14218521118164 -23.5735034942627 -39.56770324707031 -23.89251327514648 -39.56770324707031 -23.89251327514648 Z" stroke="none" fill="#fff"/>
  </g>
  <line id="Line_27" data-name="Line 27" y2="2.798" transform="translate(24.122 18.273)" fill="none" stroke="#fff" stroke-width="1"/>
  <line id="Line_28" data-name="Line 28" x1="4.656" transform="translate(4.892 17.68)" fill="none" stroke="#fff" stroke-width="1"/>
  <line id="Line_29" data-name="Line 29" y2="1.601" transform="translate(20.166 21.007)" fill="none" stroke="#fff" stroke-width="1"/>
  <line id="Line_30" data-name="Line 30" y2="1.601" transform="translate(9.961 21.007)" fill="none" stroke="#fff" stroke-width="1"/>
  <line id="Line_31" data-name="Line 31" x1="19.505" transform="translate(7.296 22.607)" fill="none" stroke="#fff" stroke-width="1"/>
  <line id="Line_32" data-name="Line 32" x2="3.955" y2="3.819" transform="translate(3.43 18.848)" fill="none" stroke="#fff" stroke-width="1"/>
  <g id="Rectangle_26" data-name="Rectangle 26" transform="translate(11.491 22.609) rotate(90)" fill="none" stroke="#fff" stroke-width="1">
    <path d="M0,0H5.8A1.595,1.595,0,0,1,7.391,1.595v0A1.595,1.595,0,0,1,5.8,3.19H0a0,0,0,0,1,0,0V0A0,0,0,0,1,0,0Z" stroke="none"/>
    <path d="M.622.5H5.8A1.095,1.095,0,0,1,6.891,1.595v0A1.095,1.095,0,0,1,5.8,2.69H.622A.122.122,0,0,1,.5,2.568V.622A.122.122,0,0,1,.622.5Z" fill="none"/>
  </g>
  <g id="Rectangle_27" data-name="Rectangle 27" transform="translate(21.697 22.609) rotate(90)" fill="none" stroke="#fff" stroke-width="1">
    <path d="M0,0H5.8A1.595,1.595,0,0,1,7.391,1.595v0A1.595,1.595,0,0,1,5.8,3.19H0a0,0,0,0,1,0,0V0A0,0,0,0,1,0,0Z" stroke="none"/>
    <path d="M.622.5H5.8A1.095,1.095,0,0,1,6.891,1.595v0A1.095,1.095,0,0,1,5.8,2.69H.622A.122.122,0,0,1,.5,2.568V.622A.122.122,0,0,1,.622.5Z" fill="none"/>
  </g>
  <line id="Line_33" data-name="Line 33" x1="3.004" transform="translate(8.347 26.974)" fill="none" stroke="#fff" stroke-width="1"/>
  <line id="Line_34" data-name="Line 34" x1="3.154" transform="translate(18.561 26.974)" fill="none" stroke="#fff" stroke-width="1"/>
</svg>
